# xmcd CD database file
#
# Track frame offsets:
#	183
#	15770
#	33805
#	49510
#	65970
#	81050
#	103103
#	112325
#	139725
#	155578
#	176358
#
# Disc length: 2498 seconds
#
# Revision: 0
# Processed by: cddbd v1.5PL3 Copyright (c) Steve Scherf et al.
# Submitted via: CDex 1.51
#
DISCID=8909c00b
DTITLE=Stan Kenton - Paris 1953 - Unissued
DYEAR=1953
DGENRE=Jazz
TTITLE0=Opus in Pastels
TTITLE1=Zoot
TTITLE2=23°N 82°W
TTITLE3=Solitaire
TTITLE4=Intermission Riff
TTITLE5=Lover Man
TTITLE6=Lover
TTITLE7=Concerto to end all Concertos
TTITLE8=Frank speaking
TTITLE9=Young Blood
TTITLE10=Interview mit Stan Kenton
EXTD=YEAR: 1953
EXTT0=
EXTT1=
EXTT2=
EXTT3=
EXTT4=
EXTT5=
EXTT6=
EXTT7=
EXTT8=
EXTT9=
EXTT10=
PLAYORDER=
